<svg width="14" height="18" viewBox="0 0 14 18" fill="none" xmlns="http://www.w3.org/2000/svg">
<path d="M13.7779 0.352351C13.698 0.244599 13.6011 0.157848 13.4931 0.0973406C13.3851 0.0368333 13.2682 0.0038261 13.1496 0.00031333C13.0309 -0.00319943 12.9128 0.0228553 12.8026 0.0769031C12.6923 0.130951 12.5921 0.21187 12.5081 0.31477L11.8316 1.1409C11.7496 1.24158 11.7036 1.37808 11.7036 1.52042C11.7036 1.66275 11.7496 1.79926 11.8316 1.89993L12.4518 2.65962C12.4924 2.70974 12.5407 2.74951 12.5939 2.77666C12.6472 2.80379 12.7042 2.81776 12.7618 2.81776C12.8195 2.81776 12.8765 2.80379 12.9297 2.77666C12.9829 2.74951 13.0313 2.70974 13.0719 2.65962L13.7314 1.85429C14.065 1.44559 14.0962 0.779847 13.7779 0.352351ZM10.4639 2.81868L0.591781 14.9121C0.531931 14.9852 0.488421 15.0761 0.465451 15.1758L0.00882076 16.8448C-0.00211924 16.8901 -0.00289896 16.9382 0.00657104 16.984C0.016051 17.0298 0.0354109 17.0716 0.0626309 17.105C0.0898509 17.1384 0.123911 17.1622 0.161211 17.1737C0.198521 17.1854 0.237691 17.1844 0.274601 17.171L1.63357 16.6106C1.71486 16.5824 1.78888 16.529 1.84849 16.4556L11.7031 4.3394C11.7943 4.22632 11.8454 4.07367 11.8454 3.9146C11.8454 3.75552 11.7943 3.60287 11.7031 3.48979L11.159 2.81868C11.0667 2.70577 10.9417 2.64237 10.8114 2.64237C10.6811 2.64237 10.5562 2.70577 10.4639 2.81868Z" fill="#FFB342"/>
</svg>
