<svg width="172" height="27" viewBox="0 0 172 27" fill="none" xmlns="http://www.w3.org/2000/svg">
<path d="M0.0072937 26V1.325H11.3823C14.089 1.325 16.1773 1.8967 17.6473 3.04C19.1173 4.1833 19.8523 5.7467 19.8523 7.73C19.8523 9.2 19.409 10.4483 18.5223 11.475C17.659 12.5017 16.469 13.19 14.9523 13.54V12.98C16.7256 13.2833 18.0906 13.96 19.0473 15.01C20.0273 16.0367 20.5173 17.3783 20.5173 19.035C20.5173 21.2283 19.7356 22.9433 18.1723 24.18C16.6323 25.3933 14.4973 26 11.7673 26H0.0072937ZM5.22229 21.94H11.1023C12.4556 21.94 13.494 21.6833 14.2173 21.17C14.9406 20.6567 15.3023 19.84 15.3023 18.72C15.3023 17.5767 14.9406 16.76 14.2173 16.27C13.494 15.7567 12.4556 15.5 11.1023 15.5H5.22229V21.94ZM5.22229 11.475H10.4023C11.8256 11.475 12.8756 11.2183 13.5523 10.705C14.229 10.1917 14.5673 9.4217 14.5673 8.395C14.5673 7.3917 14.229 6.6333 13.5523 6.12C12.8756 5.6067 11.8256 5.35 10.4023 5.35H5.22229V11.475ZM24.0274 26V0.239998H29.3124V26H24.0274ZM40.0719 26.385C37.8552 26.385 36.2102 25.7783 35.1369 24.565C34.0636 23.3283 33.5269 21.4617 33.5269 18.965V8.255H38.8119V18.965C38.8119 20.085 39.0336 20.9133 39.4769 21.45C39.9436 21.9867 40.6552 22.255 41.6119 22.255C42.6619 22.255 43.525 21.8933 44.202 21.17C44.902 20.4233 45.252 19.4317 45.252 18.195V8.255H50.537V26H45.392V22.605H45.882C45.345 23.795 44.575 24.7283 43.572 25.405C42.5919 26.0583 41.4252 26.385 40.0719 26.385ZM63.817 26.385C60.737 26.385 58.333 25.5567 56.607 23.9C54.88 22.2433 54.017 19.9917 54.017 17.145C54.017 15.3017 54.378 13.6917 55.102 12.315C55.848 10.9383 56.875 9.865 58.182 9.095C59.512 8.3017 61.063 7.905 62.837 7.905C64.587 7.905 66.045 8.2783 67.212 9.025C68.402 9.7717 69.288 10.8217 69.872 12.175C70.478 13.505 70.782 15.0567 70.782 16.83V18.055H58.357V15.43H66.932L66.337 15.92C66.337 14.45 66.033 13.3417 65.427 12.595C64.843 11.825 63.992 11.44 62.872 11.44C61.635 11.44 60.678 11.895 60.002 12.805C59.348 13.715 59.022 15.0217 59.022 16.725V17.285C59.022 19.0117 59.442 20.295 60.282 21.135C61.145 21.975 62.382 22.395 63.992 22.395C64.948 22.395 65.847 22.2783 66.687 22.045C67.55 21.7883 68.367 21.3917 69.137 20.855L70.607 24.355C69.72 25.0083 68.693 25.51 67.527 25.86C66.383 26.21 65.147 26.385 63.817 26.385ZM86.42 26.385C83.783 26.385 81.52 25.86 79.63 24.81C77.74 23.76 76.282 22.29 75.255 20.4C74.252 18.4867 73.75 16.235 73.75 13.645C73.75 11.055 74.252 8.815 75.255 6.925C76.282 5.035 77.74 3.565 79.63 2.515C81.52 1.465 83.783 0.939998 86.42 0.939998C88.123 0.939998 89.675 1.185 91.075 1.675C92.475 2.1417 93.665 2.83 94.645 3.74L92.93 8.045C91.857 7.205 90.83 6.61 89.85 6.26C88.893 5.91 87.808 5.735 86.595 5.735C84.285 5.735 82.512 6.4233 81.275 7.8C80.062 9.1533 79.455 11.1017 79.455 13.645C79.455 16.1883 80.062 18.1483 81.275 19.525C82.512 20.9017 84.285 21.59 86.595 21.59C87.808 21.59 88.893 21.415 89.85 21.065C90.83 20.715 91.857 20.12 92.93 19.28L94.645 23.585C93.665 24.4717 92.475 25.16 91.075 25.65C89.675 26.14 88.123 26.385 86.42 26.385ZM105.264 26.385C103.374 26.385 101.729 26.0117 100.329 25.265C98.953 24.495 97.879 23.4217 97.109 22.045C96.363 20.6683 95.989 19.0233 95.989 17.11C95.989 15.22 96.363 13.5867 97.109 12.21C97.879 10.8333 98.953 9.7717 100.329 9.025C101.729 8.2783 103.374 7.905 105.264 7.905C107.154 7.905 108.799 8.2783 110.199 9.025C111.599 9.7717 112.673 10.8333 113.419 12.21C114.189 13.5867 114.574 15.22 114.574 17.11C114.574 19.0233 114.189 20.6683 113.419 22.045C112.673 23.4217 111.599 24.495 110.199 25.265C108.799 26.0117 107.154 26.385 105.264 26.385ZM105.264 22.395C106.478 22.395 107.434 21.9633 108.134 21.1C108.858 20.2367 109.219 18.9067 109.219 17.11C109.219 15.3133 108.858 13.995 108.134 13.155C107.434 12.315 106.478 11.895 105.264 11.895C104.051 11.895 103.083 12.315 102.359 13.155C101.659 13.995 101.309 15.3133 101.309 17.11C101.309 18.9067 101.659 20.2367 102.359 21.1C103.083 21.9633 104.051 22.395 105.264 22.395ZM144.091 26.385C142.551 26.385 141.198 26.0117 140.031 25.265C138.865 24.5183 137.955 23.4567 137.301 22.08C136.648 20.7033 136.321 19.0467 136.321 17.11C136.321 15.1967 136.648 13.5517 137.301 12.175C137.955 10.7983 138.865 9.7483 140.031 9.025C141.198 8.2783 142.551 7.905 144.091 7.905C145.515 7.905 146.786 8.255 147.906 8.955C149.05 9.6317 149.796 10.5533 150.146 11.72H149.761L150.181 8.255H155.256C155.186 9.025 155.116 9.8067 155.046 10.6C155 11.37 154.976 12.1283 154.976 12.875V26H149.726L149.691 22.675H150.111C149.738 23.795 148.991 24.6933 147.871 25.37C146.751 26.0467 145.491 26.385 144.091 26.385ZM145.701 22.395C146.915 22.395 147.895 21.9633 148.641 21.1C149.388 20.2367 149.761 18.9067 149.761 17.11C149.761 15.3133 149.388 13.995 148.641 13.155C147.895 12.315 146.915 11.895 145.701 11.895C144.488 11.895 143.508 12.315 142.761 13.155C142.015 13.995 141.641 15.3133 141.641 17.11C141.641 18.9067 142.003 20.2367 142.726 21.1C143.473 21.9633 144.465 22.395 145.701 22.395ZM159.276 26V12.945C159.276 12.175 159.252 11.3933 159.206 10.6C159.182 9.8067 159.124 9.025 159.031 8.255H164.106L164.701 13.435H163.896C164.129 12.175 164.502 11.1367 165.016 10.32C165.552 9.5033 166.206 8.8967 166.976 8.5C167.769 8.1033 168.667 7.905 169.671 7.905C170.114 7.905 170.464 7.9283 170.721 7.975C170.977 7.9983 171.234 8.0567 171.491 8.15L171.456 12.805C170.966 12.595 170.546 12.4667 170.196 12.42C169.869 12.35 169.449 12.315 168.936 12.315C167.956 12.315 167.139 12.5017 166.486 12.875C165.856 13.2483 165.377 13.7967 165.051 14.52C164.747 15.2433 164.596 16.1183 164.596 17.145V26H159.276Z" fill="#1C2752"/>
</svg>
