<svg width="18" height="19" viewBox="0 0 18 19" fill="none" xmlns="http://www.w3.org/2000/svg">
<path d="M12.6268 2.35469C13.6109 2.35752 14.5539 2.73524 15.2498 3.40535C15.9456 4.07546 16.3379 4.98351 16.3408 5.93119V13.0834C16.3379 14.0311 15.9456 14.9392 15.2498 15.6093C14.5539 16.2794 13.6109 16.6571 12.6268 16.6599H5.19944C4.21532 16.6571 3.27234 16.2794 2.57645 15.6093C1.88057 14.9392 1.48832 14.0311 1.48539 13.0834V5.93119C1.48832 4.98351 1.88057 4.07546 2.57645 3.40535C3.27234 2.73524 4.21532 2.35752 5.19944 2.35469H12.6268ZM12.6268 0.924316H5.19944C2.33969 0.924316 0 3.17735 0 5.93119V13.0834C0 15.8373 2.33969 18.0903 5.19944 18.0903H12.6268C15.4865 18.0903 17.8262 15.8373 17.8262 13.0834V5.93119C17.8262 3.17735 15.4865 0.924316 12.6268 0.924316Z" fill="#1C2752"/>
</svg>
