<svg width="11" height="11" viewBox="0 0 11 11" fill="none" xmlns="http://www.w3.org/2000/svg">
<path d="M9.7409 2.93139C9.5205 2.93139 9.3051 2.86847 9.1219 2.75058C8.9387 2.63269 8.7959 2.46513 8.7116 2.26909C8.6272 2.07305 8.6052 1.85733 8.6482 1.64921C8.6912 1.44109 8.7973 1.24993 8.9531 1.09988C9.1089 0.949839 9.3074 0.847659 9.5235 0.806259C9.7397 0.764859 9.9637 0.786109 10.1673 0.867309C10.3708 0.948519 10.5448 1.08603 10.6673 1.26246C10.7897 1.4389 10.855 1.64632 10.855 1.85852C10.8553 1.9995 10.8267 2.13914 10.7709 2.26945C10.715 2.39975 10.6329 2.51815 10.5294 2.61783C10.4259 2.71752 10.3029 2.79653 10.1676 2.85034C10.0323 2.90415 9.8873 2.9317 9.7409 2.93139ZM4.9131 3.64639C5.50074 3.64639 6.0752 3.81419 6.5638 4.12857C7.0524 4.44296 7.4332 4.8898 7.6581 5.41261C7.883 5.93541 7.9418 6.51069 7.8272 7.0657C7.7125 7.6207 7.4296 8.1305 7.014 8.5306C6.5985 8.9308 6.0691 9.2033 5.49274 9.3137C4.91639 9.4241 4.31899 9.3674 3.77608 9.1508C3.23317 8.9343 2.76914 8.5676 2.44266 8.0971C2.11619 7.6266 1.94193 7.0734 1.94193 6.50751C1.94277 5.74894 2.25608 5.02168 2.81309 4.48529C3.37011 3.9489 4.12535 3.6472 4.9131 3.64639ZM4.9131 2.21602C4.03167 2.21602 3.17005 2.46771 2.43717 2.93926C1.70429 3.41082 1.13309 4.08106 0.79578 4.86523C0.45847 5.6494 0.370219 6.51227 0.542179 7.3447C0.714129 8.1772 1.13858 8.9419 1.76184 9.5421C2.3851 10.1422 3.17918 10.551 4.04367 10.7165C4.90815 10.8821 5.80422 10.7972 6.6185 10.4723C7.4329 10.1475 8.1289 9.5975 8.6186 8.8917C9.1083 8.186 9.3696 7.3563 9.3696 6.50751C9.3696 5.36934 8.9001 4.27778 8.0644 3.47297C7.2286 2.66815 6.095 2.21602 4.9131 2.21602Z" fill="#1C2752"/>
</svg>
