<svg width="44" height="21" viewBox="0 0 44 21" fill="none" xmlns="http://www.w3.org/2000/svg">
<path d="M36.9436 5.17054V13.4455C36.9436 14.0071 36.4796 14.4627 35.9078 14.4627H35.1741C34.6022 14.4627 34.1383 14.0071 34.1383 13.4455V3.01968C32.0127 1.63169 29.6282 0.59334 27.0711 0V14.3567C27.0711 14.9183 26.6071 15.3739 26.0353 15.3739H17.9431C17.3712 15.3739 16.9073 14.9183 16.9073 14.3567V0C14.3825 0.59334 11.998 1.64228 9.87248 3.01968V13.4455C9.87248 14.0071 9.40853 14.4627 8.83668 14.4627H8.10299C7.53114 14.4627 7.06718 14.0071 7.06718 13.4455V5.17054C2.72977 9.112 0 14.7381 0 21H44C44.0108 14.7381 41.2918 9.112 36.9436 5.17054Z" fill="#FFB342"/>
</svg>
